<?xml version="1.0" standalone="no"?>
<!DOCTYPE svg PUBLIC "-//W3C//DTD SVG 20010904//EN"
 "http://www.w3.org/TR/2001/REC-SVG-20010904/DTD/svg10.dtd">
<svg version="1.0" xmlns="http://www.w3.org/2000/svg"
 width="700.000000pt" height="700.000000pt" viewBox="0 0 700.000000 700.000000"
 preserveAspectRatio="xMidYMid meet">
<metadata>
Created by potrace 1.14, written by Peter Selinger 2001-2017
</metadata>
<g transform="translate(0.000000,700.000000) scale(0.100000,-0.100000)"
fill="#000000" stroke="none">
<path d="M3278 6996 c-1 -2 -42 -6 -89 -10 -47 -4 -95 -8 -105 -10 -10 -2 -48
-7 -84 -12 -36 -4 -67 -8 -70 -9 -3 -1 -25 -5 -50 -9 -112 -20 -352 -80 -462
-117 -522 -174 -974 -447 -1353 -818 -417 -407 -706 -867 -888 -1412 -54 -162
-112 -399 -132 -538 -2 -14 -6 -42 -10 -62 -6 -40 -10 -75 -22 -199 -15 -162
-8 -592 12 -711 2 -13 6 -46 9 -74 38 -329 167 -745 339 -1085 61 -122 169
-312 187 -330 3 -3 31 -43 62 -90 170 -255 431 -534 708 -755 92 -74 370 -265
386 -265 4 0 15 -6 23 -14 26 -22 298 -158 408 -204 282 -116 583 -199 862
-238 25 -3 57 -7 70 -10 196 -30 697 -25 908 10 21 4 52 8 68 10 105 13 276
53 447 103 l130 38 -7 100 c-8 124 -15 199 -21 204 -3 3 -32 -6 -67 -18 -34
-13 -75 -27 -92 -31 -16 -5 -70 -19 -120 -33 -174 -47 -326 -74 -525 -92 -63
-6 -385 -6 -445 0 -493 46 -906 181 -1296 421 -130 80 -319 219 -399 294 -134
123 -201 194 -345 361 -12 14 -59 77 -103 140 -272 386 -433 793 -507 1279
-27 180 -27 647 -1 773 3 12 8 40 11 62 32 248 124 545 247 805 45 93 163 307
177 320 4 3 29 39 56 80 79 117 220 285 343 407 326 324 713 559 1154 702 53
18 104 33 115 35 10 2 54 13 98 25 44 11 95 22 113 25 17 4 44 8 60 11 82 14
177 26 257 32 162 13 476 7 596 -12 13 -2 47 -6 74 -10 143 -19 369 -75 537
-133 491 -171 960 -504 1286 -914 42 -53 78 -96 78 -95 1 1 64 188 139 415
l137 412 -55 63 c-412 465 -937 813 -1517 1006 -177 59 -412 118 -550 136 -19
3 -46 7 -60 10 -13 2 -54 7 -90 11 -36 3 -76 8 -90 11 -27 5 -536 14 -542 9z"/>
<path d="M3190 4444 c-148 -31 -313 -104 -410 -182 -62 -49 -188 -181 -196
-204 -3 -10 -9 -18 -14 -18 -5 0 -34 -51 -64 -112 -52 -105 -91 -223 -101
-308 -6 -44 -6 -227 -1 -260 3 -14 7 -43 11 -65 9 -56 50 -176 81 -238 120
-238 335 -424 580 -500 119 -38 155 -42 314 -41 112 1 163 6 223 23 174 46
307 123 437 251 148 146 214 258 270 460 25 86 35 293 19 375 -5 28 -12 63
-15 79 -9 51 -45 149 -81 221 -133 266 -385 457 -688 521 -64 13 -300 12 -365
-2z"/>
</g>
</svg>
